<mxfile host="65bd71144e">
    <diagram id="D816-fdUm3V99tdZfsJd" name="Page-1">
        <mxGraphModel dx="638" dy="305" grid="0" gridSize="10" guides="1" tooltips="1" connect="1" arrows="1" fold="1" page="1" pageScale="1" pageWidth="827" pageHeight="1169" background="none" math="0" shadow="0">
            <root>
                <mxCell id="0"/>
                <mxCell id="1" parent="0"/>
                <mxCell id="3" value="&lt;p style=&quot;margin: 0px ; margin-top: 4px ; text-align: center&quot;&gt;&lt;b&gt;Service&lt;/b&gt;&lt;/p&gt;&lt;hr size=&quot;1&quot;&gt;&lt;p style=&quot;margin: 0px ; margin-left: 4px&quot;&gt;&lt;/p&gt;&lt;p style=&quot;margin: 0px ; margin-left: 4px&quot;&gt;&lt;br&gt;+ take(): void&lt;/p&gt;" style="verticalAlign=middle;align=left;overflow=fill;fontSize=12;fontFamily=Helvetica;html=1;fillColor=none;" parent="1" vertex="1">
                    <mxGeometry x="550" y="230" width="190" height="100" as="geometry"/>
                </mxCell>
                <mxCell id="4" value="Order" style="swimlane;fontStyle=1;align=center;verticalAlign=middle;childLayout=stackLayout;horizontal=1;startSize=26;horizontalStack=0;resizeParent=1;resizeParentMax=0;resizeLast=0;collapsible=1;marginBottom=0;fillColor=none;" parent="1" vertex="1">
                    <mxGeometry x="430" y="455" width="160" height="130" as="geometry"/>
                </mxCell>
                <mxCell id="5" value="- receiver:Â Mechanic&#10;- order: string" style="text;strokeColor=none;fillColor=none;align=left;verticalAlign=middle;spacingLeft=4;spacingRight=4;overflow=hidden;rotatable=0;points=[[0,0.5],[1,0.5]];portConstraint=eastwest;" parent="4" vertex="1">
                    <mxGeometry y="26" width="160" height="54" as="geometry"/>
                </mxCell>
                <mxCell id="6" value="" style="line;strokeWidth=1;fillColor=none;align=left;verticalAlign=middle;spacingTop=-1;spacingLeft=3;spacingRight=3;rotatable=0;labelPosition=right;points=[];portConstraint=eastwest;labelBackgroundColor=#F1FAEE;fontColor=#1D3557;" parent="4" vertex="1">
                    <mxGeometry y="80" width="160" height="8" as="geometry"/>
                </mxCell>
                <mxCell id="7" value="+ take(): void" style="text;strokeColor=none;fillColor=none;align=left;verticalAlign=middle;spacingLeft=4;spacingRight=4;overflow=hidden;rotatable=0;points=[[0,0.5],[1,0.5]];portConstraint=eastwest;" parent="4" vertex="1">
                    <mxGeometry y="88" width="160" height="42" as="geometry"/>
                </mxCell>
                <mxCell id="8" value="Administrator" style="swimlane;fontStyle=1;align=center;verticalAlign=middle;childLayout=stackLayout;horizontal=1;startSize=26;horizontalStack=0;resizeParent=1;resizeParentMax=0;resizeLast=0;collapsible=1;marginBottom=0;fillColor=none;" parent="1" vertex="1">
                    <mxGeometry x="280" y="210" width="190" height="129" as="geometry"/>
                </mxCell>
                <mxCell id="9" value="- order: Order" style="text;fillColor=none;align=left;verticalAlign=middle;spacingLeft=4;spacingRight=4;overflow=hidden;rotatable=0;points=[[0,0.5],[1,0.5]];portConstraint=eastwest;strokeColor=#f0f0f0;" parent="8" vertex="1">
                    <mxGeometry y="26" width="190" height="43" as="geometry"/>
                </mxCell>
                <mxCell id="11" value="+ writeOrder(order:Order): Waiter&#10;+ serveClient(): void" style="text;fillColor=none;align=left;verticalAlign=middle;spacingLeft=4;spacingRight=4;overflow=hidden;rotatable=0;points=[[0,0.5],[1,0.5]];portConstraint=eastwest;strokeColor=#f0f0f0;" parent="8" vertex="1">
                    <mxGeometry y="69" width="190" height="60" as="geometry"/>
                </mxCell>
                <mxCell id="12" value="Mechanic" style="swimlane;fontStyle=1;align=center;verticalAlign=middle;childLayout=stackLayout;horizontal=1;startSize=26;horizontalStack=0;resizeParent=1;resizeParentMax=0;resizeLast=0;collapsible=1;marginBottom=0;fillColor=none;" parent="1" vertex="1">
                    <mxGeometry x="80" y="610" width="250" height="72" as="geometry"/>
                </mxCell>
                <mxCell id="15" value="+ prepare( order: string): void" style="text;strokeColor=none;fillColor=none;align=left;verticalAlign=middle;spacingLeft=4;spacingRight=4;overflow=hidden;rotatable=0;points=[[0,0.5],[1,0.5]];portConstraint=eastwest;" parent="12" vertex="1">
                    <mxGeometry y="26" width="250" height="46" as="geometry"/>
                </mxCell>
                <mxCell id="17" value="" style="endArrow=block;dashed=1;endFill=0;endSize=12;html=1;edgeStyle=orthogonalEdgeStyle;labelBackgroundColor=#F1FAEE;fontColor=#1D3557;" parent="1" source="4" target="3" edge="1">
                    <mxGeometry width="160" relative="1" as="geometry">
                        <mxPoint x="350" y="400" as="sourcePoint"/>
                        <mxPoint x="510" y="400" as="targetPoint"/>
                    </mxGeometry>
                </mxCell>
                <mxCell id="21" value="" style="endArrow=open;endFill=1;endSize=12;html=1;exitX=0.269;exitY=1.003;exitDx=0;exitDy=0;entryX=0.209;entryY=-0.002;entryDx=0;entryDy=0;entryPerimeter=0;exitPerimeter=0;edgeStyle=orthogonalEdgeStyle;labelBackgroundColor=#ffffff;" parent="1" source="11" target="12" edge="1">
                    <mxGeometry width="160" relative="1" as="geometry">
                        <mxPoint x="350" y="400" as="sourcePoint"/>
                        <mxPoint x="510" y="400" as="targetPoint"/>
                    </mxGeometry>
                </mxCell>
                <mxCell id="23" value="" style="endArrow=open;endSize=12;dashed=1;html=1;exitX=0.554;exitY=1.031;exitDx=0;exitDy=0;edgeStyle=orthogonalEdgeStyle;entryX=-0.014;entryY=0.688;entryDx=0;entryDy=0;entryPerimeter=0;exitPerimeter=0;labelBackgroundColor=#F1FAEE;fontColor=#1D3557;" parent="1" source="11" target="5" edge="1">
                    <mxGeometry width="160" relative="1" as="geometry">
                        <mxPoint x="135.64" y="305" as="sourcePoint"/>
                        <mxPoint x="360" y="508" as="targetPoint"/>
                        <Array as="points">
                            <mxPoint x="385" y="518"/>
                        </Array>
                    </mxGeometry>
                </mxCell>
                <mxCell id="24" value="" style="endArrow=open;endFill=1;endSize=12;html=1;exitX=0.001;exitY=0.189;exitDx=0;exitDy=0;exitPerimeter=0;entryX=1.001;entryY=0.272;entryDx=0;entryDy=0;entryPerimeter=0;edgeStyle=orthogonalEdgeStyle;labelBackgroundColor=#F1FAEE;fontColor=#1D3557;" parent="1" source="6" target="15" edge="1">
                    <mxGeometry width="160" relative="1" as="geometry">
                        <mxPoint x="300" y="400" as="sourcePoint"/>
                        <mxPoint x="330" y="560" as="targetPoint"/>
                    </mxGeometry>
                </mxCell>
                <mxCell id="26" value="" style="endArrow=open;html=1;endSize=12;startArrow=diamondThin;startSize=14;startFill=0;edgeStyle=orthogonalEdgeStyle;align=left;verticalAlign=bottom;entryX=0;entryY=0.5;entryDx=0;entryDy=0;labelBackgroundColor=#F1FAEE;fontColor=#1D3557;" parent="1" target="3" edge="1">
                    <mxGeometry x="-1" y="3" relative="1" as="geometry">
                        <mxPoint x="472" y="280" as="sourcePoint"/>
                        <mxPoint x="460" y="400" as="targetPoint"/>
                        <Array as="points">
                            <mxPoint x="472" y="280"/>
                        </Array>
                    </mxGeometry>
                </mxCell>
            </root>
        </mxGraphModel>
    </diagram>
</mxfile>